<?xml version="1.0" encoding="utf-8"?><svg xmlns="http://www.w3.org/2000/svg" xmlns:xlink="http://www.w3.org/1999/xlink" width="1366" height="663" preserveAspectRatio="xMidYMid" viewBox="0 0 1366 663" style="z-index:1;margin-right:-2px;display:block;background-repeat-y:initial;background-repeat-x:initial;background-color:rgb(255, 255, 255);animation-play-state:paused" ><g transform="" style="animation-play-state:paused" ><linearGradient id="lg-0.45929152492293235" x1="0" x2="1" y1="0" y2="0" style="animation-play-state:paused" ><stop stop-color="#ff00ff" offset="0" style="animation-play-state:paused" ></stop>

  
<stop stop-color="#00ffff" offset="1" style="animation-play-state:paused" ></stop></linearGradient>
<path fill="url(#lg-0.45929152492293235)" opacity="0.4" d="M 0 0 L 0 605.161 Q 341.5 532.853 683 498.968 T 1366 376.35 L 1366 0 Z" style="opacity:0.4;animation-play-state:paused" ></path>
<path fill="url(#lg-0.45929152492293235)" opacity="0.4" d="M 0 0 L 0 623.978 Q 341.5 564.582 683 523.926 T 1366 392.773 L 1366 0 Z" style="opacity:0.4;animation-play-state:paused" ></path>
<path fill="url(#lg-0.45929152492293235)" opacity="0.4" d="M 0 0 L 0 624.458 Q 341.5 537.883 683 501.883 T 1366 405.19 L 1366 0 Z" style="opacity:0.4;animation-play-state:paused" ></path>
<path fill="url(#lg-0.45929152492293235)" opacity="0.4" d="M 0 0 L 0 610.305 Q 341.5 575.834 683 533.677 T 1366 403.463 L 1366 0 Z" style="opacity:0.4;animation-play-state:paused" ></path>
<path fill="url(#lg-0.45929152492293235)" opacity="0.4" d="M 0 0 L 0 635.358 Q 341.5 533.135 683 498.302 T 1366 405.243 L 1366 0 Z" style="opacity:0.4;animation-play-state:paused" ></path>
<path fill="url(#lg-0.45929152492293235)" opacity="0.4" d="M 0 0 L 0 640.777 Q 341.5 535.261 683 504.761 T 1366 394.865 L 1366 0 Z" style="opacity:0.4;animation-play-state:paused" ></path>
<path fill="url(#lg-0.45929152492293235)" opacity="0.4" d="M 0 0 L 0 652.154 Q 341.5 532.533 683 510.075 T 1366 412.436 L 1366 0 Z" style="opacity:0.4;animation-play-state:paused" ></path>
<path fill="url(#lg-0.45929152492293235)" opacity="0.4" d="M 0 0 L 0 643.706 Q 341.5 514.425 683 494.435 T 1366 368.174 L 1366 0 Z" style="opacity:0.4;animation-play-state:paused" ></path>
<path fill="url(#lg-0.45929152492293235)" opacity="0.4" d="M 0 0 L 0 621.202 Q 341.5 513.733 683 486.28 T 1366 382.326 L 1366 0 Z" style="opacity:0.4;animation-play-state:paused" ></path></g></svg>